<?xml version="1.0" encoding="UTF-8" standalone="no"?>
<!-- Created with Inkscape (http://www.inkscape.org/) -->

<svg
   xmlns:dc="http://purl.org/dc/elements/1.1/"
   xmlns:cc="http://creativecommons.org/ns#"
   xmlns:rdf="http://www.w3.org/1999/02/22-rdf-syntax-ns#"
   xmlns:svg="http://www.w3.org/2000/svg"
   xmlns="http://www.w3.org/2000/svg"
   xmlns:sodipodi="http://sodipodi.sourceforge.net/DTD/sodipodi-0.dtd"
   xmlns:inkscape="http://www.inkscape.org/namespaces/inkscape"
   width="1200"
   height="800"
   viewBox="0 0 317.49999 211.66667"
   version="1.1"
   id="svg8"
   inkscape:version="0.92.2 5c3e80d, 2017-08-06"
   sodipodi:docname="projeto-nextsaude.svg">
  <defs
     id="defs2" />
  <sodipodi:namedview
     id="base"
     pagecolor="#ffffff"
     bordercolor="#666666"
     borderopacity="1.0"
     inkscape:pageopacity="0.0"
     inkscape:pageshadow="2"
     inkscape:zoom="1.4513367"
     inkscape:cx="568.39188"
     inkscape:cy="590.37968"
     inkscape:document-units="px"
     inkscape:current-layer="layer1"
     showgrid="false"
     units="px"
     width="1200px"
     showguides="true"
     inkscape:guide-bbox="true"
     inkscape:window-width="1920"
     inkscape:window-height="998"
     inkscape:window-x="0"
     inkscape:window-y="0"
     inkscape:window-maximized="1" />
  <metadata
     id="metadata5">
    <rdf:RDF>
      <cc:Work
         rdf:about="">
        <dc:format>image/svg+xml</dc:format>
        <dc:type
           rdf:resource="http://purl.org/dc/dcmitype/StillImage" />
        <dc:title></dc:title>
      </cc:Work>
    </rdf:RDF>
  </metadata>
  <g
     inkscape:label="Layer 1"
     inkscape:groupmode="layer"
     id="layer1"
     transform="translate(0,-85.333335)">
    <g
       id="g993">
      <rect
         y="135.47859"
         x="67.269112"
         height="48.676498"
         width="185.58621"
         id="rect945"
         style="opacity:1;fill:#ffffff;fill-opacity:1;stroke:#000000;stroke-width:0.26304281;stroke-linecap:square;stroke-miterlimit:4;stroke-dasharray:none;stroke-dashoffset:0;stroke-opacity:1" />
      <path
         id="circle854"
         d="m 71.559456,113.78018 v 21.68601 h 10.206096 a 10.445885,10.445885 0 0 0 -0.0067,0.13798 10.445885,10.445885 0 0 0 10.445872,10.44587 10.445885,10.445885 0 0 0 10.446396,-10.44587 10.445885,10.445885 0 0 0 -0.005,-0.13798 h 10.20454 v -21.68601 z"
         style="opacity:1;fill:#aa8800;fill-opacity:1;stroke:#000000;stroke-width:0.27489668;stroke-linecap:square;stroke-miterlimit:4;stroke-dasharray:none;stroke-dashoffset:0;stroke-opacity:1"
         inkscape:connector-curvature="0" />
      <text
         id="text901"
         y="130.68565"
         x="74.448944"
         style="font-style:normal;font-weight:normal;font-size:10.58333302px;line-height:1.25;font-family:sans-serif;letter-spacing:0px;word-spacing:0px;fill:#ffffff;fill-opacity:1;stroke:none;stroke-width:0.26458332"
         xml:space="preserve"><tspan
           style="fill:#ffffff;fill-opacity:1;stroke-width:0.26458332"
           y="130.68565"
           x="74.448944"
           id="tspan899"
           sodipodi:role="line">SisAPP</tspan></text>
      <path
         id="circle878"
         transform="matrix(0.26458333,0,0,0.26458333,0,85.333335)"
         d="M 440.46094 107.51562 L 440.46094 189.47852 L 479.03516 189.47852 A 39.480509 39.480509 0 0 0 479.00977 190 A 39.480509 39.480509 0 0 0 518.49023 229.48047 A 39.480509 39.480509 0 0 0 557.97266 190 A 39.480509 39.480509 0 0 0 557.95312 189.47852 L 596.52148 189.47852 L 596.52148 107.51562 L 440.46094 107.51562 z "
         style="opacity:1;fill:#ff6600;fill-opacity:1;stroke:#000000;stroke-width:1.03897965;stroke-linecap:square;stroke-miterlimit:4;stroke-dasharray:none;stroke-dashoffset:0;stroke-opacity:1" />
      <text
         id="text905"
         y="129.46336"
         x="118.37804"
         style="font-style:normal;font-weight:normal;font-size:10.58333302px;line-height:1.25;font-family:sans-serif;letter-spacing:0px;word-spacing:0px;fill:#fffff6;fill-opacity:1;stroke:none;stroke-width:0.26458332;"
         xml:space="preserve"><tspan
           style="font-size:8.46666622px;stroke-width:0.26458332;fill:#fffff6;fill-opacity:1;"
           y="129.46336"
           x="118.37804"
           id="tspan903"
           sodipodi:role="line">Dengoso</tspan></text>
      <path
         id="circle884"
         transform="matrix(0.26458333,0,0,0.26458333,0,85.333335)"
         d="M 610.46094 107.51562 L 610.46094 189.47852 L 649.03516 189.47852 A 39.480509 39.480509 0 0 0 649.00977 190 A 39.480509 39.480509 0 0 0 688.49023 229.48047 A 39.480509 39.480509 0 0 0 727.9707 190 A 39.480509 39.480509 0 0 0 727.95312 189.47852 L 766.52148 189.47852 L 766.52148 107.51562 L 610.46094 107.51562 z "
         style="opacity:1;fill:#88aa00;fill-opacity:1;stroke:#000000;stroke-width:1.03897965;stroke-linecap:square;stroke-miterlimit:4;stroke-dasharray:none;stroke-dashoffset:0;stroke-opacity:1" />
      <text
         id="text912"
         y="130.633"
         x="172.08897"
         style="font-style:normal;font-weight:normal;font-size:10.58333302px;line-height:1.25;font-family:sans-serif;letter-spacing:0px;word-spacing:0px;fill:#ffffff;fill-opacity:1;stroke:none;stroke-width:0.26458332;"
         xml:space="preserve"><tspan
           style="stroke-width:0.26458332;fill:#ffffff;fill-opacity:1;"
           y="130.633"
           x="172.08897"
           id="tspan910"
           sodipodi:role="line">Vite</tspan></text>
      <path
         id="circle890"
         transform="matrix(0.26458333,0,0,0.26458333,0,85.333335)"
         d="M 780.46094 107.51562 L 780.46094 189.47852 L 819.03516 189.47852 A 39.480509 39.480509 0 0 0 819.00977 190 A 39.480509 39.480509 0 0 0 858.49219 229.48047 A 39.480509 39.480509 0 0 0 897.97266 190 A 39.480509 39.480509 0 0 0 897.95312 189.47852 L 936.52148 189.47852 L 936.52148 107.51562 L 780.46094 107.51562 z "
         style="opacity:1;fill:#00aa88;fill-opacity:1;stroke:#000000;stroke-width:1.03897965;stroke-linecap:square;stroke-miterlimit:4;stroke-dasharray:none;stroke-dashoffset:0;stroke-opacity:1" />
      <text
         id="text919"
         y="118.70746"
         x="227.1218"
         style="font-style:normal;font-weight:normal;font-size:10.58333302px;line-height:1.25;font-family:sans-serif;letter-spacing:0px;word-spacing:0px;fill:#000000;fill-opacity:1;stroke:none;stroke-width:0.26458332"
         xml:space="preserve"><tspan
           dy="4.8399992"
           style="font-size:7.05555534px;text-align:center;text-anchor:middle;stroke-width:0.26458332;fill:#ffffff;fill-opacity:1"
           y="118.70746"
           x="227.1218"
           id="tspan917"
           sodipodi:role="line">TV Health</tspan><tspan
           id="tspan921"
           style="font-size:7.05555534px;text-align:center;text-anchor:middle;stroke-width:0.26458332;fill:#ffffff;fill-opacity:1"
           y="131.93663"
           x="227.1218"
           sodipodi:role="line">das Coisas</tspan></text>
      <text
         id="text966"
         y="178.80133"
         x="100.39661"
         style="font-style:normal;font-weight:normal;font-size:10.58333302px;line-height:1.25;font-family:sans-serif;letter-spacing:0px;word-spacing:0px;fill:#000000;fill-opacity:1;stroke:none;stroke-width:0.26458332"
         xml:space="preserve"><tspan
           style="stroke-width:0.26458332"
           y="178.80133"
           x="100.39661"
           id="tspan964"
           sodipodi:role="line">Plataforma NextSaúde</tspan></text>
      <rect
         y="151.15503"
         x="76.706833"
         height="11.489896"
         width="166.71077"
         id="rect968"
         style="opacity:1;fill:#b3b3b3;fill-opacity:1;stroke:#000000;stroke-width:0.27154818;stroke-linecap:square;stroke-miterlimit:4;stroke-dasharray:none;stroke-dashoffset:0;stroke-opacity:1" />
      <text
         id="text972"
         y="160.2726"
         x="134.77435"
         style="font-style:normal;font-weight:normal;font-size:10.58333302px;line-height:1.25;font-family:sans-serif;letter-spacing:0px;word-spacing:0px;fill:#000000;fill-opacity:1;stroke:none;stroke-width:0.26458332"
         xml:space="preserve"><tspan
           style="stroke-width:0.26458332"
           y="160.2726"
           x="134.77435"
           id="tspan970"
           sodipodi:role="line">OpenEHR</tspan></text>
    </g>
  </g>
</svg>
